<svg width="28" height="34" viewBox="0 0 28 34" fill="none" xmlns="http://www.w3.org/2000/svg">
<mask id="path-1-inside-1_1355_1183" fill="white">
<path d="M28 27.1124V28.668H0V27.1124L3.11111 24.0013V14.668C3.11111 9.84575 6.26889 5.59908 10.8889 4.23019V3.77908C10.8889 2.95396 11.2167 2.16264 11.8001 1.57919C12.3836 0.995745 13.1749 0.667969 14 0.667969C14.8251 0.667969 15.6164 0.995745 16.1999 1.57919C16.7833 2.16264 17.1111 2.95396 17.1111 3.77908V4.23019C21.7311 5.59908 24.8889 9.84575 24.8889 14.668V24.0013L28 27.1124ZM17.1111 30.2235C17.1111 31.0486 16.7833 31.84 16.1999 32.4234C15.6164 33.0069 14.8251 33.3346 14 33.3346C13.1749 33.3346 12.3836 33.0069 11.8001 32.4234C11.2167 31.84 10.8889 31.0486 10.8889 30.2235"/>
</mask>
<path d="M28 27.1124H30V26.284L29.4142 25.6982L28 27.1124ZM28 28.668V30.668H30V28.668H28ZM0 28.668H-2V30.668H0V28.668ZM0 27.1124L-1.41421 25.6982L-2 26.284V27.1124H0ZM3.11111 24.0013L4.52532 25.4155L5.11111 24.8297V24.0013H3.11111ZM10.8889 4.23019L11.4571 6.14779L12.8889 5.72354V4.23019H10.8889ZM14 0.667969V-1.33203V0.667969ZM17.1111 4.23019H15.1111V5.72354L16.5429 6.14779L17.1111 4.23019ZM24.8889 24.0013H22.8889V24.8297L23.4747 25.4155L24.8889 24.0013ZM28 27.1124H26V28.668H28H30V27.1124H28ZM28 28.668V26.668H0V28.668V30.668H28V28.668ZM0 28.668H2V27.1124H0H-2V28.668H0ZM0 27.1124L1.41421 28.5266L4.52532 25.4155L3.11111 24.0013L1.6969 22.5871L-1.41421 25.6982L0 27.1124ZM3.11111 24.0013H5.11111V14.668H3.11111H1.11111V24.0013H3.11111ZM3.11111 14.668H5.11111C5.11111 10.7273 7.69035 7.26385 11.4571 6.14779L10.8889 4.23019L10.3207 2.31259C4.84743 3.93431 1.11111 8.96424 1.11111 14.668H3.11111ZM10.8889 4.23019H12.8889V3.77908H10.8889H8.88889V4.23019H10.8889ZM10.8889 3.77908H12.8889C12.8889 3.48439 13.006 3.20178 13.2143 2.99341L11.8001 1.57919L10.3859 0.164978C9.42738 1.1235 8.88889 2.42353 8.88889 3.77908H10.8889ZM11.8001 1.57919L13.2143 2.99341C13.4227 2.78503 13.7053 2.66797 14 2.66797V0.667969V-1.33203C12.6444 -1.33203 11.3444 -0.793541 10.3859 0.164978L11.8001 1.57919ZM14 0.667969V2.66797C14.2947 2.66797 14.5773 2.78503 14.7857 2.99341L16.1999 1.57919L17.6141 0.164978C16.6556 -0.793541 15.3556 -1.33203 14 -1.33203V0.667969ZM16.1999 1.57919L14.7857 2.99341C14.994 3.20178 15.1111 3.48439 15.1111 3.77908H17.1111H19.1111C19.1111 2.42353 18.5726 1.1235 17.6141 0.164978L16.1999 1.57919ZM17.1111 3.77908H15.1111V4.23019H17.1111H19.1111V3.77908H17.1111ZM17.1111 4.23019L16.5429 6.14779C20.3097 7.26385 22.8889 10.7273 22.8889 14.668H24.8889H26.8889C26.8889 8.96424 23.1526 3.93431 17.6793 2.31259L17.1111 4.23019ZM24.8889 14.668H22.8889V24.0013H24.8889H26.8889V14.668H24.8889ZM24.8889 24.0013L23.4747 25.4155L26.5858 28.5266L28 27.1124L29.4142 25.6982L26.3031 22.5871L24.8889 24.0013ZM17.1111 30.2235H15.1111C15.1111 30.5182 14.994 30.8008 14.7857 31.0092L16.1999 32.4234L17.6141 33.8376C18.5726 32.8791 19.1111 31.5791 19.1111 30.2235H17.1111ZM16.1999 32.4234L14.7857 31.0092C14.5773 31.2176 14.2947 31.3346 14 31.3346V33.3346V35.3346C15.3556 35.3346 16.6556 34.7961 17.6141 33.8376L16.1999 32.4234ZM14 33.3346V31.3346C13.7053 31.3346 13.4227 31.2176 13.2143 31.0092L11.8001 32.4234L10.3859 33.8376C11.3444 34.7961 12.6444 35.3346 14 35.3346V33.3346ZM11.8001 32.4234L13.2143 31.0092C13.006 30.8008 12.8889 30.5182 12.8889 30.2235H10.8889H8.88889C8.88889 31.5791 9.42738 32.8791 10.3859 33.8376L11.8001 32.4234Z" fill="white" mask="url(#path-1-inside-1_1355_1183)"/>
</svg>
