<svg width="33" height="26" viewBox="0 0 33 26" fill="none" xmlns="http://www.w3.org/2000/svg">
<path d="M27.9227 2.51587C25.8326 1.54155 23.5696 0.834371 21.2124 0.425781C21.1709 0.426372 21.1314 0.443317 21.1023 0.472927C20.8195 0.991521 20.4895 1.66727 20.2695 2.18586C17.7692 1.80894 15.2265 1.80894 12.7263 2.18586C12.5062 1.65155 12.1762 0.991521 11.8776 0.472927C11.8619 0.441497 11.8148 0.425781 11.7676 0.425781C9.41039 0.834371 7.16315 1.54155 5.05734 2.51587C5.04163 2.51587 5.02591 2.53159 5.0102 2.5473C0.73572 8.94331 -0.442905 15.1664 0.13855 21.3267C0.13855 21.3581 0.154265 21.3896 0.185695 21.4053C3.01439 23.4797 5.73309 24.7369 8.42035 25.5698C8.46749 25.5855 8.51464 25.5698 8.53035 25.5383C9.15895 24.674 9.72469 23.7625 10.2119 22.8039C10.2433 22.7411 10.2119 22.6782 10.149 22.6625C9.25324 22.3168 8.40464 21.9082 7.57174 21.4367C7.50888 21.4053 7.50888 21.311 7.55603 21.2639C7.72889 21.1381 7.90176 20.9967 8.07462 20.871C8.10605 20.8396 8.1532 20.8396 8.18463 20.8553C13.5906 23.3225 19.4208 23.3225 24.7639 20.8553C24.7954 20.8396 24.8425 20.8396 24.8739 20.871C25.0468 21.0124 25.2197 21.1381 25.3925 21.2796C25.4554 21.3267 25.4554 21.421 25.3768 21.4524C24.5596 21.9396 23.6953 22.3325 22.7996 22.6782C22.7367 22.6939 22.721 22.7725 22.7367 22.8196C23.2396 23.7783 23.8053 24.6897 24.4182 25.5541C24.4654 25.5698 24.5125 25.5855 24.5596 25.5698C27.2626 24.7369 29.9813 23.4797 32.81 21.4053C32.8414 21.3896 32.8572 21.3581 32.8572 21.3267C33.5486 14.2078 31.71 8.03184 27.9855 2.5473C27.9698 2.53159 27.9541 2.51587 27.9227 2.51587ZM11.029 17.5708C9.4104 17.5708 8.05891 16.0779 8.05891 14.2393C8.05891 12.4006 9.37897 10.9077 11.029 10.9077C12.6948 10.9077 14.0149 12.4163 13.9992 14.2393C13.9992 16.0779 12.6791 17.5708 11.029 17.5708ZM21.9824 17.5708C20.3637 17.5708 19.0123 16.0779 19.0123 14.2393C19.0123 12.4006 20.3323 10.9077 21.9824 10.9077C23.6482 10.9077 24.9682 12.4163 24.9525 14.2393C24.9525 16.0779 23.6482 17.5708 21.9824 17.5708Z" fill="white"/>
</svg>
