<svg width="32" height="24" viewBox="0 0 32 24" fill="none" xmlns="http://www.w3.org/2000/svg">
<path d="M14.1818 8.53359C14.1149 8.33317 14.1304 8.11438 14.2248 7.92535C14.3192 7.73632 14.4848 7.59251 14.6852 7.52555L16.2789 6.9943C16.3987 6.95431 16.5263 6.94336 16.6511 6.96235C16.776 6.98135 16.8945 7.02974 16.997 7.10355C17.0994 7.17735 17.1829 7.27446 17.2405 7.38685C17.2981 7.49925 17.3281 7.62372 17.3281 7.75V13.0625C17.3281 13.2738 17.2442 13.4765 17.0947 13.626C16.9453 13.7754 16.7426 13.8594 16.5312 13.8594C16.3199 13.8594 16.1172 13.7754 15.9678 13.626C15.8183 13.4765 15.7344 13.2738 15.7344 13.0625V8.855L15.1898 9.03695C14.9894 9.10384 14.7706 9.08838 14.5816 8.99399C14.3926 8.8996 14.2488 8.73399 14.1818 8.53359ZM31.6719 22.625C31.6719 22.8363 31.5879 23.039 31.4385 23.1885C31.289 23.3379 31.0863 23.4219 30.875 23.4219H1.125C0.913656 23.4219 0.710967 23.3379 0.561524 23.1885C0.412081 23.039 0.328125 22.8363 0.328125 22.625C0.328125 22.4137 0.412081 22.211 0.561524 22.0615C0.710967 21.9121 0.913656 21.8281 1.125 21.8281H2.45312V8.8125C2.45312 8.31936 2.64902 7.84642 2.99772 7.49772C3.34642 7.14902 3.81936 6.95312 4.3125 6.95312H9.89062V2.4375C9.89062 1.94436 10.0865 1.47142 10.4352 1.12272C10.7839 0.774023 11.2569 0.578125 11.75 0.578125H20.25C20.7431 0.578125 21.2161 0.774023 21.5648 1.12272C21.9135 1.47142 22.1094 1.94436 22.1094 2.4375V12.2656H27.6875C28.1806 12.2656 28.6536 12.4615 29.0023 12.8102C29.351 13.1589 29.5469 13.6319 29.5469 14.125V21.8281H30.875C31.0863 21.8281 31.289 21.9121 31.4385 22.0615C31.5879 22.211 31.6719 22.4137 31.6719 22.625ZM22.1094 13.8594V21.8281H27.9531V14.125C27.9531 14.0546 27.9251 13.987 27.8753 13.9372C27.8255 13.8874 27.7579 13.8594 27.6875 13.8594H22.1094ZM11.4844 21.8281H20.5156V2.4375C20.5156 2.36705 20.4876 2.29949 20.4378 2.24967C20.388 2.19986 20.3204 2.17188 20.25 2.17188H11.75C11.6796 2.17188 11.612 2.19986 11.5622 2.24967C11.5124 2.29949 11.4844 2.36705 11.4844 2.4375V21.8281ZM4.04688 21.8281H9.89062V8.54688H4.3125C4.24205 8.54688 4.17449 8.57486 4.12467 8.62467C4.07486 8.67449 4.04688 8.74205 4.04688 8.8125V21.8281Z" fill="white"/>
</svg>
