<svg width="28" height="29" viewBox="0 0 28 29" fill="none" xmlns="http://www.w3.org/2000/svg">
<path d="M22.9977 15.2573V13.9541L24.6331 12.5231C24.9346 12.2574 25.1324 11.8937 25.1916 11.4962C25.2509 11.0987 25.1677 10.6931 24.9568 10.3511L22.9466 6.94392C22.7972 6.6852 22.5824 6.47031 22.3238 6.3208C22.0651 6.1713 21.7717 6.09244 21.473 6.09213C21.2878 6.09071 21.1037 6.11948 20.9278 6.17731L18.858 6.87578C18.5011 6.63753 18.1283 6.42408 17.7422 6.23694L17.3077 4.09044C17.2299 3.69828 17.0165 3.34601 16.7051 3.0953C16.3936 2.84459 16.0039 2.7114 15.6042 2.71906H11.6178C11.2181 2.7114 10.8284 2.84459 10.5169 3.0953C10.2055 3.34601 9.99214 3.69828 9.91425 4.09044L9.47984 6.23694C9.09139 6.42488 8.71579 6.6383 8.35548 6.87578L6.32824 6.14324C6.15047 6.09692 5.96637 6.07966 5.78309 6.09213C5.48435 6.09244 5.19094 6.1713 4.9323 6.3208C4.67366 6.47031 4.45888 6.6852 4.3095 6.94392L2.29929 10.3511C2.10047 10.6926 2.02659 11.0927 2.09031 11.4827C2.15402 11.8727 2.35136 12.2285 2.64852 12.489L4.2584 13.9626V15.2659L2.64852 16.6969C2.34296 16.9592 2.14023 17.3213 2.07629 17.719C2.01236 18.1166 2.09137 18.524 2.29929 18.8689L4.3095 22.2761C4.45888 22.5348 4.67366 22.7497 4.9323 22.8992C5.19094 23.0487 5.48435 23.1275 5.78309 23.1278C5.96823 23.1293 6.15236 23.1005 6.32824 23.0427L8.39807 22.3442C8.75495 22.5824 9.12778 22.7959 9.51391 22.983L9.94832 25.1295C10.0262 25.5217 10.2396 25.874 10.551 26.1247C10.8624 26.3754 11.2521 26.5086 11.6519 26.5009H15.6723C16.0721 26.5086 16.4618 26.3754 16.7732 26.1247C17.0847 25.874 17.298 25.5217 17.3759 25.1295L17.8103 22.983C18.1987 22.7951 18.5744 22.5817 18.9347 22.3442L20.996 23.0427C21.1719 23.1005 21.356 23.1293 21.5411 23.1278C21.8399 23.1275 22.1333 23.0487 22.3919 22.8992C22.6506 22.7497 22.8653 22.5348 23.0147 22.2761L24.9568 18.8689C25.1556 18.5274 25.2295 18.1273 25.1658 17.7373C25.1021 17.3472 24.9047 16.9915 24.6075 16.7309L22.9977 15.2573ZM21.473 21.4243L18.5514 20.4362C17.867 21.0149 17.0855 21.4677 16.243 21.7735L15.6382 24.8314H11.6178L11.0131 21.8076C10.1772 21.4932 9.3999 21.0412 8.71323 20.4703L5.78309 21.4243L3.77288 18.0171L6.08974 15.9728C5.93224 15.0911 5.93224 14.1885 6.08974 13.3068L3.77288 11.2028L5.78309 7.7957L8.70472 8.78377C9.38906 8.20506 10.1706 7.75229 11.0131 7.44647L11.6178 4.38856H15.6382L16.243 7.4124C17.0788 7.7268 17.8562 8.17881 18.5428 8.7497L21.473 7.7957L23.4832 11.2028L21.1663 13.2471C21.3238 14.1288 21.3238 15.0315 21.1663 15.9132L23.4832 18.0171L21.473 21.4243Z" fill="white"/>
<path d="M13.6283 19.7214C12.6175 19.7214 11.6294 19.4217 10.7889 18.8601C9.94848 18.2985 9.29343 17.5004 8.90661 16.5665C8.51979 15.6326 8.41858 14.605 8.61578 13.6137C8.81298 12.6223 9.29973 11.7116 10.0145 10.9969C10.7292 10.2821 11.6399 9.7954 12.6312 9.5982C13.6226 9.40101 14.6502 9.50221 15.5841 9.88903C16.5179 10.2758 17.3161 10.9309 17.8777 11.7714C18.4393 12.6118 18.739 13.5999 18.739 14.6107C18.7458 15.2838 18.6183 15.9514 18.3639 16.5746C18.1095 17.1977 17.7333 17.7638 17.2573 18.2398C16.7814 18.7157 16.2153 19.0919 15.5921 19.3463C14.969 19.6007 14.3013 19.7283 13.6283 19.7214ZM13.6283 11.2036C13.178 11.1931 12.7302 11.274 12.3121 11.4416C11.894 11.6091 11.5142 11.8596 11.1957 12.1781C10.8772 12.4966 10.6266 12.8764 10.4591 13.2945C10.2916 13.7127 10.2107 14.1604 10.2212 14.6107C10.2107 15.061 10.2916 15.5088 10.4591 15.9269C10.6266 16.345 10.8772 16.7248 11.1957 17.0433C11.5142 17.3618 11.894 17.6124 12.3121 17.7799C12.7302 17.9474 13.178 18.0283 13.6283 18.0179C14.0786 18.0283 14.5263 17.9474 14.9445 17.7799C15.3626 17.6124 15.7424 17.3618 16.0609 17.0433C16.3794 16.7248 16.6299 16.345 16.7975 15.9269C16.965 15.5088 17.0459 15.061 17.0354 14.6107C17.0459 14.1604 16.965 13.7127 16.7975 13.2945C16.6299 12.8764 16.3794 12.4966 16.0609 12.1781C15.7424 11.8596 15.3626 11.6091 14.9445 11.4416C14.5263 11.274 14.0786 11.1931 13.6283 11.2036Z" fill="white"/>
</svg>
