<svg width="34" height="32" viewBox="0 0 34 32" fill="none" xmlns="http://www.w3.org/2000/svg">
<path d="M1 5.41176C1 4.24169 1.46481 3.11954 2.29217 2.29217C3.11954 1.46481 4.24169 1 5.41176 1H29.74C30.0929 1 30.2676 1 30.4106 1.04941C30.5355 1.09341 30.6488 1.16495 30.7423 1.25874C30.8358 1.35252 30.907 1.46614 30.9506 1.59118C31 1.73235 31 1.90882 31 2.26176C31 4.37235 31 5.42941 30.7035 6.27823C30.4406 7.02871 30.012 7.71032 29.4496 8.27245C28.8871 8.83458 28.2053 9.26279 27.4547 9.52529C26.6059 9.82352 25.547 9.82352 23.4364 9.82352H22.1765M1 5.41176C1 6.58183 1.46481 7.70398 2.29217 8.53135C3.11954 9.35871 4.24169 9.82352 5.41176 9.82352H29.2353C30.8994 9.82352 31.7306 9.82352 32.2476 10.3406C32.7647 10.8576 32.7647 11.6888 32.7647 13.3529V16.8823M1 5.41176V23.9412C1 27.2694 1 28.9317 2.03412 29.9659C3.06823 31 4.73058 31 8.05882 31H29.2353C30.8994 31 31.7306 31 32.2476 30.4829C32.7647 29.9659 32.7647 29.1347 32.7647 27.4706V23.9412M32.7647 16.8823H25.7059C24.0417 16.8823 23.2106 16.8823 22.6935 17.3994C22.1765 17.9165 22.1765 18.7476 22.1765 20.4117C22.1765 22.0759 22.1765 22.907 22.6935 23.4241C23.2106 23.9412 24.0417 23.9412 25.7059 23.9412H32.7647M32.7647 16.8823V23.9412" stroke="white" stroke-width="2"/>
</svg>
